<?xml version="1.0" standalone="no"?>
<!DOCTYPE svg PUBLIC "-//W3C//DTD SVG 20010904//EN"
 "http://www.w3.org/TR/2001/REC-SVG-20010904/DTD/svg10.dtd">
<svg version="1.0" xmlns="http://www.w3.org/2000/svg"
 width="50.000000pt" height="50.000000pt" viewBox="0 0 50.000000 50.000000"
 preserveAspectRatio="xMidYMid meet">

<g transform="translate(0.000000,50.000000) scale(0.100000,-0.100000)"
fill="#000000" stroke="none">
<path d="M300 414 c0 -5 11 -10 25 -10 37 -3 72 -29 94 -73 11 -21 28 -42 38
-45 17 -7 17 -6 0 11 -10 10 -27 32 -37 50 -11 18 -29 39 -42 47 -29 18 -78
31 -78 20z"/>
<path d="M316 377 c3 -10 9 -15 12 -12 3 3 0 11 -7 18 -10 9 -11 8 -5 -6z"/>
<path d="M331 323 c-1 -35 8 -46 28 -34 9 6 10 11 2 15 -6 4 -12 1 -12 -6 -1
-7 -5 3 -9 22 l-7 35 -2 -32z"/>
<path d="M450 266 c0 -2 6 -9 13 -15 10 -8 14 -7 14 4 0 8 -6 15 -14 15 -7 0
-13 -2 -13 -4z"/>
<path d="M0 215 c0 -51 20 -63 21 -12 l0 32 16 -32 c9 -18 22 -33 28 -33 6 0
19 15 28 33 l16 32 0 -32 c1 -51 21 -39 21 12 0 56 -23 61 -47 10 l-17 -36
-18 36 c-26 51 -48 46 -48 -10z"/>
<path d="M234 245 c-8 -21 4 -35 32 -35 37 0 30 -28 -8 -33 -27 -4 -25 -4 7
-3 33 1 40 5 40 21 0 14 -8 21 -27 23 -39 5 -35 30 5 35 31 4 31 4 -6 5 -25 1
-40 -3 -43 -13z"/>
<path d="M327 254 c-12 -12 -8 -74 6 -78 6 -3 26 -7 43 -10 l31 -5 -1 47 c-1
46 -2 47 -36 50 -20 2 -39 0 -43 -4z m63 -33 c0 -26 -14 -41 -41 -41 -5 0 -9
16 -9 35 0 31 3 35 25 35 21 0 25 -5 25 -29z"/>
<path d="M422 218 c3 -43 3 -43 43 -44 32 -1 34 -1 8 3 -31 4 -33 7 -33 44 0
21 -5 39 -11 39 -6 0 -9 -17 -7 -42z"/>
<path d="M142 203 c2 -22 10 -29 33 -34 l30 -6 -35 -5 c-34 -5 -34 -6 5 -4 39
1 40 2 43 39 2 21 -1 37 -7 37 -6 0 -11 -11 -11 -25 0 -18 -5 -25 -20 -25 -15
0 -20 7 -20 25 0 14 -5 25 -11 25 -6 0 -9 -12 -7 -27z"/>
</g>
</svg>
