<svg version="1.0" xmlns="http://www.w3.org/2000/svg" width="66.667" height="66.667" viewBox="0 0 50 50"><path d="M30 8.6c0 .5 1.1 1 2.5 1 3.7.3 7.2 2.9 9.4 7.3 1.1 2.1 2.8 4.2 3.8 4.5 1.7.7 1.7.6 0-1.1-1-1-2.7-3.2-3.7-5-1.1-1.8-2.9-3.9-4.2-4.7-2.9-1.8-7.8-3.1-7.8-2zM31.6 12.3c.3 1 .9 1.5 1.2 1.2.3-.3 0-1.1-.7-1.8-1-.9-1.1-.8-.5.6zM33.1 17.7c-.1 3.5.8 4.6 2.8 3.4.9-.6 1-1.1.2-1.5-.6-.4-1.2-.1-1.2.6-.1.7-.5-.3-.9-2.2l-.7-3.5-.2 3.2zM45 23.4c0 .2.6.9 1.3 1.5 1 .8 1.4.7 1.4-.4 0-.8-.6-1.5-1.4-1.5-.7 0-1.3.2-1.3.4zM0 28.5c0 5.1 2 6.3 2.1 1.2v-3.2l1.6 3.2c.9 1.8 2.2 3.3 2.8 3.3.6 0 1.9-1.5 2.8-3.3l1.6-3.2v3.2c.1 5.1 2.1 3.9 2.1-1.2 0-5.6-2.3-6.1-4.7-1l-1.7 3.6-1.8-3.6c-2.6-5.1-4.8-4.6-4.8 1zM23.4 25.5c-.8 2.1.4 3.5 3.2 3.5 3.7 0 3 2.8-.8 3.3-2.7.4-2.5.4.7.3 3.3-.1 4-.5 4-2.1 0-1.4-.8-2.1-2.7-2.3-3.9-.5-3.5-3 .5-3.5 3.1-.4 3.1-.4-.6-.5-2.5-.1-4 .3-4.3 1.3zM32.7 24.6c-1.2 1.2-.8 7.4.6 7.8.6.3 2.6.7 4.3 1l3.1.5-.1-4.7c-.1-4.6-.2-4.7-3.6-5-2-.2-3.9 0-4.3.4zm6.3 3.3c0 2.6-1.4 4.1-4.1 4.1-.5 0-.9-1.6-.9-3.5 0-3.1.3-3.5 2.5-3.5 2.1 0 2.5.5 2.5 2.9zM42.2 28.2c.3 4.3.3 4.3 4.3 4.4 3.2.1 3.4.1.8-.3-3.1-.4-3.3-.7-3.3-4.4 0-2.1-.5-3.9-1.1-3.9-.6 0-.9 1.7-.7 4.2zM14.2 29.7c.2 2.2 1 2.9 3.3 3.4l3 .6-3.5.5c-3.4.5-3.4.6.5.4 3.9-.1 4-.2 4.3-3.9.2-2.1-.1-3.7-.7-3.7S20 28.1 20 29.5c0 1.8-.5 2.5-2 2.5s-2-.7-2-2.5c0-1.4-.5-2.5-1.1-2.5-.6 0-.9 1.2-.7 2.7z"/></svg>