<svg xmlns="http://www.w3.org/2000/svg" viewBox="0 0 512 512" xml:space="preserve"><path style="fill:#ffe000" d="M8.258 173.419h495.484V338.58H8.258z"/><path style="fill:#ed1f34" d="M468.324 90.839H43.676c-19.561 0-35.418 15.858-35.418 35.418v47.162h495.484v-47.162c0-19.561-15.858-35.418-35.418-35.418zM8.258 385.743c0 19.561 15.858 35.418 35.418 35.418h424.648c19.561 0 35.418-15.857 35.418-35.418v-47.162H8.258v47.162z"/><path style="fill:#121b21" d="M468.324 82.581H43.676C19.593 82.581 0 102.173 0 126.257v259.487c0 24.083 19.593 43.675 43.676 43.675h424.648c24.083 0 43.675-19.593 43.675-43.676V126.257c.001-24.084-19.592-43.676-43.675-43.676zM43.676 99.097h424.648c14.976 0 27.159 12.183 27.159 27.16v38.904H16.516v-38.904c0-14.977 12.184-27.16 27.16-27.16zm424.648 313.806H43.676c-14.977 0-27.16-12.183-27.16-27.16v-38.904h388.129a8.258 8.258 0 0 0 8.258-8.258 8.258 8.258 0 0 0-8.258-8.258H16.516V181.677h478.968v148.645h-57.806a8.258 8.258 0 0 0-8.258 8.258 8.258 8.258 0 0 0 8.258 8.258h57.806v38.904c0 14.978-12.184 27.161-27.16 27.161z"/></svg>